<?xml version="1.0" encoding="utf-8"?>
<!-- Generator: Adobe Illustrator 25.0.1, SVG Export Plug-In . SVG Version: 6.00 Build 0)  -->
<svg version="1.1" id="Layer_1" xmlns="http://www.w3.org/2000/svg" xmlns:xlink="http://www.w3.org/1999/xlink" x="0px" y="0px"
	 viewBox="0 0 1150 627.5" style="enable-background:new 0 0 1150 627.5;" xml:space="preserve">
<style type="text/css">
	.st0{opacity:0.1;fill:#ECD59F;enable-background:new    ;}
	.st1{fill:#ABD1DC;}
	.st2{fill:none;}
	.st3{fill:#7097A8;}
	.st4{fill:#3F3D56;}
	.st5{fill:#ECD59F;}
	.st6{fill:#6E97A8;}
	.st7{opacity:0.1;}
	.st8{opacity:0.1;enable-background:new    ;}
	.st9{fill:#9C9CA1;}
	.st10{fill:#939498;}
	.st11{opacity:0.4;enable-background:new    ;}
	.st12{fill:#C4A477;}
	.st13{fill:#FFFFFF;}
	.st14{fill:#CCCCCC;}
</style>
<path class="st0" d="M1138.8,582.1c-4.5,11-10,21.6-16.4,31.6c-3,4.8-6.3,9.3-9.9,13.7l-0.1,0.1H1l0.1-0.1c1-0.8,6.9-5.5,16-13.7
	c6.5-5.8,14.8-13.4,24-22.5c75.5-74.2,220.5-250,99.7-411C28.6,30.5,149.5,3.3,229.2,0.2C259.9-1,290.4,4,319.1,14.9
	c36.8,14,104.2,35.5,191.9,45.3c2.9,0.3,5.8,0.6,8.7,0.9c46.4,4.7,93.2,5.6,139.8,2.5l0,0c1.4-0.1,2.8-0.2,4.1-0.3
	c46.1-3.2,91.8-10.3,136.7-21.1c2.9-0.7,5.8-1.4,8.6-2.1c149.6-34.6,287.6,83.4,253.1,216.7c-12.8,49.3-9.5,101.9,33,144.4
	C1164.7,470.7,1156.2,539.1,1138.8,582.1z"/>
<path class="st1" d="M1137.6,582.1c-4.5,11-10,21.6-16.4,31.6c-3,4.8-6.3,9.3-9.9,13.7H0c1-0.8,6.9-5.5,16-13.7
	c6.5-5.8,14.8-13.4,24-22.5L157.1,567c1.5-0.3,3.1-0.5,4.6-0.5l124.9-0.2h0.1l61.9-0.1h0.1l52.2-0.1H435l0,0h35l143.4-0.2h0.2h11.1
	h19.5h24.4h6.5l24.6-0.3h8.1l71.6-0.1h22.9l0,0h11l0,0l82.8-0.1h24.6l78.4-0.1l66.2-0.1c1.8,0,3.7,0.2,5.5,0.7L1137.6,582.1z"/>
<path class="st2" d="M16.2,613.7h1105.2c-3,4.8-6.3,9.3-9.9,13.7H0.1C1.1,626.6,7,621.8,16.2,613.7z"/>
<path class="st3" d="M16.2,613.7h1105.2c-3,4.8-6.3,9.3-9.9,13.7H0.1C1.1,626.6,7,621.8,16.2,613.7z"/>
<path class="st4" d="M256.8,521.3h12.1c13.8,0,25,11.2,25,25v37.1l0,0h-62.1l0,0v-37.1C231.8,532.5,243,521.3,256.8,521.3
	L256.8,521.3z"/>
<path class="st1" d="M256.8,521.3h12.1c13.8,0,25,11.2,25,25v37.1l0,0h-62.1l0,0v-37.1C231.8,532.5,243,521.3,256.8,521.3
	L256.8,521.3z"/>
<circle class="st4" cx="260.4" cy="530" r="5"/>
<circle class="st4" cx="260.4" cy="523.8" r="5"/>
<circle class="st1" cx="260.4" cy="519.6" r="5"/>
<circle class="st1" cx="260.4" cy="511.4" r="5"/>
<circle class="st1" cx="260.4" cy="505.2" r="5"/>
<circle class="st1" cx="260.4" cy="499" r="5"/>
<circle class="st4" cx="260.4" cy="492.7" r="5"/>
<circle class="st1" cx="267.8" cy="495.2" r="5"/>
<circle class="st1" cx="272.8" cy="492.7" r="5"/>
<circle class="st1" cx="277.8" cy="490.3" r="5"/>
<circle class="st1" cx="260.4" cy="486.5" r="5"/>
<circle class="st1" cx="260.4" cy="480.3" r="5"/>
<circle class="st1" cx="260.4" cy="474.1" r="5"/>
<circle class="st4" cx="260.4" cy="467.9" r="5"/>
<path class="st5" d="M281,451.9c-1.2,0.2-2.5,0.3-3.7,0.4c1.2-1,2.2-2.1,3.2-3.3c-0.7-2.1-1.7-4.1-3-5.8c-1.2,0.7-2.6,1.1-4,1.3
	c-1.2,0.2-2.5,0.3-3.7,0.4c1.6-1.3,3.1-3.3,4.8-5c-8.6-7.8-22-7.2-29.8,1.5c-7.8,8.6-7.2,22,1.5,29.8c8.6,7.8,22,7.2,29.8-1.5
	c3.5-3.9,5.5-8.9,5.5-14.2c0-1.2-0.1-2.4-0.3-3.6L281,451.9z"/>
<path class="st5" d="M297.6,476.6c-1.3,0.8-2.7,1.3-4.2,1.4c-1.2,0.2-2.5,0.3-3.7,0.4c1.3-1.2,2.5-2.5,3.7-3.8
	c-6.6-1.7-13.4,2.3-15.2,8.9c-1.7,6.6,2.3,13.4,8.9,15.2c6.6,1.7,13.4-2.3,15.2-8.9C303.5,484.8,301.7,479.5,297.6,476.6
	L297.6,476.6z"/>
<circle class="st1" cx="252.9" cy="495.2" r="5"/>
<circle class="st1" cx="247.9" cy="492.7" r="5"/>
<circle class="st1" cx="243" cy="490.3" r="5"/>
<path class="st5" d="M223.2,476.6c1.3,0.8,2.7,1.3,4.2,1.4c1.2,0.2,2.5,0.3,3.7,0.4c-1.3-1.2-2.6-2.5-3.7-3.8
	c6.6-1.7,13.4,2.3,15.2,8.9c1.7,6.6-2.3,13.4-8.9,15.2c-6.6,1.7-13.4-2.3-15.2-8.9C217.2,484.8,219,479.5,223.2,476.6L223.2,476.6z"
	/>
<path class="st6" d="M256.8,525h12.1c13.8,0,25,11.2,25,25l0,0v32.9c0,2.3-1.9,4.2-4.2,4.2H236c-2.3,0-4.2-1.9-4.2-4.2V550
	C231.8,536.2,243,525,256.8,525L256.8,525z"/>
<g class="st7">
	<path d="M281.3,453.2c-0.5,0.5-1,1-1.6,1.5c0.6,0,1.1-0.1,1.7-0.2C281.4,454.1,281.4,453.7,281.3,453.2z"/>
	<path d="M272.3,447.3c1.2-0.1,2.5-0.2,3.7-0.4c1.1-0.1,2.2-0.4,3.2-0.9c-0.5-1-1.1-2-1.7-2.9c-0.6,0.4-1.3,0.7-2,0.8
		C274.5,445.2,273.4,446.3,272.3,447.3z"/>
	<path d="M241.7,458c0-11.6,9.4-21.1,21-21.1c4.1,0,8,1.2,11.5,3.4l0.3-0.3c-8.7-7.7-22-7-29.8,1.7s-7,22,1.7,29.8
		c0.1,0.1,0.2,0.1,0.2,0.2C243.5,467.8,241.7,463,241.7,458z"/>
</g>
<g class="st7">
	<path d="M289.7,480.8c1.2-0.1,2.5-0.2,3.7-0.4c1.5-0.1,2.9-0.6,4.2-1.4c2.8,2.1,4.7,5.3,5,8.8c0-0.4,0.1-0.9,0.1-1.3
		c0-3.9-1.8-7.7-5-10c-1.3,0.8-2.7,1.3-4.2,1.4l-1,0.1C291.6,479,290.7,480,289.7,480.8z"/>
	<path d="M290.2,476.6c0.4,0,0.8,0,1.2,0.1c0.6-0.7,1.3-1.4,1.9-2.2c-6.6-1.8-13.4,2.2-15.2,8.8c-0.3,1.1-0.4,2.1-0.4,3.2
		c0,0.4,0,0.8,0.1,1.2C278.5,481.4,283.8,476.6,290.2,476.6z"/>
</g>
<g class="st7">
	<path d="M231,480.8c-1.2-0.1-2.5-0.2-3.7-0.4c-1.5-0.1-2.9-0.6-4.2-1.4c-2.8,2.1-4.7,5.3-5,8.8c0-0.4-0.1-0.9-0.1-1.3
		c0-3.9,1.8-7.7,5-10c1.3,0.8,2.7,1.3,4.2,1.4l1,0.1C229.1,479.1,230,480,231,480.8z"/>
	<path d="M230.6,476.6c-0.4,0-0.8,0-1.2,0.1c-0.6-0.7-1.3-1.4-1.9-2.2c6.6-1.8,13.4,2.2,15.2,8.8c0.3,1.1,0.4,2.1,0.4,3.2
		c0,0.4,0,0.8-0.1,1.2C242.3,481.4,236.9,476.6,230.6,476.6z"/>
</g>
<path class="st5" d="M196.7,599.1H99c-2.3,0-4.2-1.9-4.2-4.2l0,0v-46.2c0-2.3,1.9-4.2,4.1-4.2c0.6,0,1.2,0.1,1.8,0.4
	c28.1,13.3,58.3,17.9,94,0.2c2.1-1,4.6-0.2,5.6,1.9c0.3,0.6,0.4,1.2,0.4,1.8v46C200.8,597.2,198.9,599.1,196.7,599.1L196.7,599.1z"
	/>
<path class="st8" d="M196.7,599.1H99c-2.3,0-4.2-1.9-4.2-4.2l0,0v-46.2c0-2.3,1.9-4.2,4.1-4.2c0.6,0,1.2,0.1,1.8,0.4
	c28.1,13.3,58.3,17.9,94,0.2c2.1-1,4.6-0.2,5.6,1.9c0.3,0.6,0.4,1.2,0.4,1.8v46C200.8,597.2,198.9,599.1,196.7,599.1L196.7,599.1z"
	/>
<ellipse class="st1" cx="147.1" cy="555.4" rx="5.8" ry="7.6"/>
<ellipse class="st1" cx="147.1" cy="547.1" rx="5.8" ry="7.6"/>
<ellipse class="st1" cx="147.1" cy="537.9" rx="5.8" ry="7.6"/>
<ellipse class="st1" cx="147.1" cy="528.6" rx="5.8" ry="7.6"/>
<ellipse class="st1" cx="147.1" cy="519.4" rx="5.8" ry="7.6"/>
<ellipse class="st4" cx="147.1" cy="510.1" rx="5.8" ry="7.6"/>
<ellipse class="st4" cx="147.1" cy="500.8" rx="5.8" ry="7.6"/>
<path class="st5" d="M168.8,437.5c0.8-1,1.5-2.1,2.1-3.2l-15.2-2.5l16.4,0.1c3.2-6.9,3.4-14.9,0.5-22l-22.1,11.4l20.3-15
	c-7.7-13.2-24.6-17.8-37.9-10.1s-17.8,24.6-10.1,37.9c0.7,1.1,1.4,2.2,2.2,3.3c-1.2,1.6-2.3,3.3-3.2,5l19.7,10.4l-21-7.1
	c-3,8.9-1.3,18.6,4.5,26c-9.5,12-7.4,29.4,4.6,38.9c12,9.5,29.4,7.4,38.9-4.6c7.9-10.1,7.9-24.2,0-34.3
	C176.7,461.7,176.7,447.5,168.8,437.5L168.8,437.5z"/>
<path class="st8" d="M119.3,454.6c0,6.2,2.1,12.3,5.9,17.1c-9.5,12-7.4,29.4,4.6,38.9c12,9.5,29.4,7.4,38.9-4.6
	c7.9-10.1,7.9-24.2,0-34.3C172.5,467.1,119.3,451.5,119.3,454.6z"/>
<path class="st5" d="M196.7,601.5H99c-2.3,0-4.2-1.9-4.2-4.2l0,0v-48.7c0-2.3,1.9-4.2,4.1-4.2c0.6,0,1.2,0.1,1.8,0.4
	c28.1,13.3,50.3,28.8,94,0.2c2.6-1.7,6,0.6,6,3.7v48.5C200.7,599.6,198.9,601.5,196.7,601.5z"/>
<polygon class="st9" points="921.8,587.8 777.7,606.9 770.5,607.8 700,570.2 700,561.4 920.2,537.4 "/>
<polygon class="st10" points="740.8,574.2 897,555.8 895.4,584.6 773.8,593.5 "/>
<path class="st11" d="M777.7,597.4v9.5l-7.2,1L700,570.2v-8.8l67.3,36C767.3,597.4,776.1,598.2,777.7,597.4z"/>
<path class="st12" d="M805.4,447.3l-32.4,150c-1.1,5.2,2.2,10.3,7.3,11.4c1.1,0.2,2.2,0.3,3.3,0.1l204.7-27.1c3.6-0.5,6.7-3,7.8-6.5
	l44.2-133.2c1.7-5-1.1-10.5-6.1-12.1c-1.1-0.4-2.3-0.5-3.5-0.5l-216.5,10.3C809.9,439.9,806.3,443,805.4,447.3z"/>
<ellipse transform="matrix(0.1045 -0.9945 0.9945 0.1045 317.5255 1356.8276)" class="st13" cx="912.2" cy="502.1" rx="8.7" ry="5.6"/>
<path class="st12" d="M472.6,603c-3.8,0-6.9-5.3-6.9-11.9c0-6.5,3.1-11.9,6.9-11.9h102.2c-1-3.3-3.1-5.4-5.3-5.4H366.3
	c-5.5,0-10,7.7-10,17.3c0,9.5,4.5,17.2,10,17.3h203.2c2.2,0,4.2-2.1,5.3-5.4L472.6,603z"/>
<path class="st14" d="M574.9,585.8h-97.2c-0.3,0-0.6-0.4-0.6-1c0-0.5,0.3-1,0.6-1h97.2c0.3,0,0.6,0.4,0.6,1
	C575.5,585.3,575.2,585.8,574.9,585.8z"/>
<path class="st14" d="M574.9,592.1h-97.2c-0.3,0-0.6-0.4-0.6-1c0-0.5,0.3-1,0.6-1h97.2c0.3,0,0.6,0.4,0.6,1
	C575.5,591.6,575.2,592.1,574.9,592.1z"/>
<path class="st14" d="M574.9,598.4h-97.2c-0.3,0-0.6-0.4-0.6-1c0-0.5,0.3-1,0.6-1h97.2c0.3,0,0.6,0.4,0.6,1
	C575.5,597.9,575.2,598.4,574.9,598.4z"/>
<path class="st5" d="M446.1,569.5c-3.8,0-6.9-5.3-6.9-11.9c0-6.5,3.1-11.9,6.9-11.9h102.2c-1-3.3-3.1-5.4-5.3-5.4H339.9
	c-5.5,0-10,7.7-10,17.3c0,9.5,4.5,17.2,10,17.3h203.2c2.2,0,4.2-2.1,5.3-5.4L446.1,569.5z"/>
<path class="st14" d="M548.5,552.3h-97.2c-0.3,0-0.6-0.4-0.6-1c0-0.5,0.3-1,0.6-1h97.2c0.3,0,0.6,0.4,0.6,1
	C549.1,551.9,548.8,552.3,548.5,552.3L548.5,552.3z"/>
<path class="st14" d="M548.5,558.6h-97.2c-0.3,0-0.6-0.4-0.6-1c0-0.5,0.3-1,0.6-1h97.2c0.3,0,0.6,0.4,0.6,1
	C549.1,558.2,548.8,558.6,548.5,558.6L548.5,558.6z"/>
<path class="st14" d="M548.5,564.9h-97.2c-0.3,0-0.6-0.4-0.6-1c0-0.5,0.3-1,0.6-1h97.2c0.3,0,0.6,0.4,0.6,1S548.8,564.9,548.5,564.9
	L548.5,564.9z"/>
<circle class="st1" cx="260.4" cy="492.7" r="5"/>
<g>
	<path class="st12" d="M208.6,247.8c-2.8,0.7-3.3,2-4.9,8c-1.8,6.7-3.1,12-5,20.9c-0.6,2.6-0.7,3.8-0.7,6.4V296c0,8.4,0.3,9.2,4,9.8
		v2.8h-11.6v-2.8c3.5-0.6,3.9-1.3,3.9-9.8v-12.5c0-2.1-0.2-3-0.9-6c-1.3-5.6-2.8-12-5-21.4c-1.6-6.6-2.1-7.8-4.5-8.4v-3h9.9v3
		c-2.9,0.9-2.7,2.2-2,5.4c1.7,7.5,3.6,15.6,5.3,22.9c1.4-6.3,3.7-16.2,4.8-22.1c0.9-4.6,0.7-5.6-2.4-6.3v-3h9V247.8z"/>
	<path class="st12" d="M219.5,264.7c5.1,0,8.8,9.9,8.8,21.7c0,15.8-4.8,23.3-8.8,23.3c-5.7,0-9-10.7-9-21.5
		C210.5,272.2,215.7,264.7,219.5,264.7L219.5,264.7z M219,268c-2.3,0-4.4,5.8-4.4,16.9c0,12.4,2.1,21.5,5.3,21.5
		c2.3,0,4.4-3.9,4.4-17.6C224.3,277,222.4,268,219,268L219,268z"/>
	<path class="st12" d="M250.7,306.3c-0.9,0.3-2,0.9-3.1,1.5c-1.1,0.7-2.2,1.4-3,1.9l-0.3-0.5v-7c-0.9,1.7-1.7,3.4-2.8,5
		c-1.2,1.6-2,2.5-3.2,2.5c-2.8,0-5-4.2-5-14.7v-18.7c0-5.4-0.3-5.8-1.3-6.4l-1.1-0.7v-2.3c0.8-0.1,1.9-0.4,3-0.7
		c1.1-0.3,2.3-0.8,3-1.1c-0.1,3-0.1,7.7-0.1,14.2v13.2c0,8.2,1.7,10.7,3.4,10.7c1.4,0,2.8-1.3,4.1-4.4v-22.6c0-5.4-0.3-6-1.6-6.5
		l-1.4-0.6v-2.3c1.1-0.1,2.5-0.4,3.7-0.8c1.2-0.2,2.1-0.7,2.8-0.9v32.3c0,5.1,0.3,5.8,1.9,6l1.1,0.1V306.3z"/>
	<path class="st12" d="M289.8,268.5c-2,0.8-2.4,1.9-3.2,7.2c-1.2,7.7-3,20.9-4.9,34.1h-1.2c-1.7-10.5-3.3-20.2-4.9-29.9
		c-1.5,9.8-3.1,19.5-4.7,29.9h-1.3c-1.4-11.6-3-23.1-4.6-34.9c-0.7-5-1-5.8-2.9-6.4v-2.6h8.5v2.6c-2.4,1-2.6,1.6-2,6
		c0.9,7.2,1.9,14.8,2.8,21.9h0.1c1.5-9.1,3-19.1,4.6-30h1.1c1.5,9.9,3.1,20.1,4.8,30.4h0.1c0.8-6.1,2-15,2.6-21.9
		c0.5-4.8,0.2-5.5-2.3-6.4v-2.6h7.2V268.5z"/>
	<path class="st12" d="M290.5,308.6V306c2.5-0.6,2.8-1.2,2.8-8.1v-19.7c0-6.2-0.1-6.6-2.5-7.6v-2.3c2.1-0.9,4.1-2,5.9-3.8V298
		c0,6.8,0.3,7.3,2.8,8.1v2.6H290.5z M292.6,251.1c0-3.2,1-5.5,2.2-5.5c1.2,0,2.1,2.3,2.1,5.5c0,2.8-0.9,5.3-2.1,5.3
		C293.6,256.4,292.6,253.9,292.6,251.1z"/>
	<path class="st12" d="M300.7,308.6V306c2.5-0.7,2.8-1.3,2.8-7.8v-46c0-6.6-0.3-6.8-2.7-7.4v-2.4c2.1-0.6,4.7-2.3,6.1-3.4v59.3
		c0,6.6,0.3,7.2,2.9,7.8v2.6H300.7z"/>
	<path class="st12" d="M311,308.6V306c2.5-0.7,2.8-1.3,2.8-7.8v-46c0-6.6-0.3-6.8-2.7-7.4v-2.4c2.1-0.6,4.7-2.3,6.1-3.4v59.3
		c0,6.6,0.3,7.2,2.9,7.8v2.6H311z"/>
	<path class="st12" d="M338.9,275.3c1.3-5.4,2.9-10.6,4.8-10.6c1.4,0,2.4,2.6,2.4,5c0,2.3-0.5,4.3-1.4,5.3c-0.5,0.5-0.8,0.3-1.1-0.3
		c-0.6-1.4-1.1-2-1.7-2c-1,0-2.2,2.9-3.1,8.1v17.5c0,6.4,0.2,7,3.3,7.6v2.6h-9.5V306c2.4-0.6,2.8-1.2,2.8-7.6v-20.3
		c0-6.2-0.2-6.6-2.4-7.4v-2.2c2-0.8,3.8-1.9,5.9-4L338.9,275.3L338.9,275.3z"/>
	<path class="st12" d="M362.3,299.9c-2.6,8.1-5.4,9.9-6.7,9.9c-4.9,0-7.8-9.9-7.8-20.8c0-6.5,0.9-12.4,2.5-16.8
		c1.7-4.7,3.9-7.5,6-7.5h0c3.4,0,6.1,7.3,6.1,15.1c0,1.9-0.2,2.8-0.9,3.2c-0.7,0.3-5.7,1.3-10.3,1.7c0.1,12.7,3,18,5.8,18
		c1.6,0,3.2-1.5,4.6-4.9L362.3,299.9z M355.4,268.4c-1.7,0-3.4,3.8-4,12c2.1,0,4.2,0,6.4-0.2c0.7-0.1,0.9-0.6,0.9-1.9
		C358.8,273.2,357.5,268.4,355.4,268.4L355.4,268.4z"/>
	<path class="st12" d="M377.4,309.8c-0.7,0-1.6-0.9-2-1.9c-0.5-1.3-0.8-2.6-1-4.2c-1.6,2.5-3.5,6.1-4.6,6.1c-3,0-4.9-5.9-4.9-12.1
		c0-4.9,1.1-7.9,3.2-9.6c2.5-2,5.3-4.6,6.1-6.4V280c0-7-1.3-10.8-3.2-10.8c-0.7,0-1.3,0.7-1.7,1.7c-0.5,1.3-0.9,3.5-1.2,6.6
		c-0.2,1.7-0.7,2.4-1.3,2.4c-0.8,0-1.8-2-1.8-4.4c0-1.5,0.5-2.7,1.3-4c1.1-2.1,3.8-5.8,6.1-6.9c1.3,0,2.4,0.7,3.3,2.5
		c1.5,3.1,1.9,7.2,1.9,12.4v17.6c0,4.4,0.7,5.8,1.4,5.8c0.5,0,1-0.5,1.4-1.1l0.4,2.6L377.4,309.8z M374.3,285.2
		c-0.8,1-2.4,2.9-3.2,3.8c-1.5,1.7-2.4,3.6-2.4,7.2c0,5.2,1.5,7.4,2.7,7.4c0.9,0,2.2-1.5,2.9-3.2V285.2z"/>
	<path class="st12" d="M397.5,299.6c-1.8,5.8-4.5,10.2-6.8,10.2c-5.2,0-8.2-10.1-8.2-20.5c0-7.4,1.4-14.1,4-19.1
		c2.2-4,4.6-5.6,6.1-5.6h0.1c1.6,0,2.9,1.2,3.6,2.6c0.5,1.1,0.6,1.9,0.6,3c0,2.3-0.9,4.5-1.4,4.5c-0.2,0-0.4-0.3-0.8-1.1
		c-1.3-2.9-2.6-4.2-4.1-4.2c-2.5,0-4.7,5-4.7,15.4c0,13.5,3.9,17.8,6,17.8c1.7,0,3-1.1,4.8-5.3L397.5,299.6z"/>
	<path class="st12" d="M410.1,308.6V306c2.2-0.6,2.6-1.3,2.6-7.6v-15.9c0-8.1-1.3-11.9-3.8-11.9c-1.4,0-2.9,1.7-4,4.8v23.1
		c0,6.2,0.2,7,2.5,7.6v2.6h-8.7V306c2.4-0.6,2.7-1.2,2.7-7.6v-46.6c0-6.2-0.1-6.5-2.6-7.1v-2.3c1.9-0.7,4.4-2.1,6.1-3.4v32.9
		c1.5-3.6,3.6-7.1,5.7-7.1c3.3,0,5.6,5,5.6,17v16.7c0,6.6,0.3,7,2.6,7.6v2.6H410.1z"/>
	<path class="st12" d="M444.2,309.8c-0.7,0-1.6-0.9-2-1.9c-0.5-1.3-0.8-2.6-1-4.2c-1.6,2.5-3.5,6.1-4.6,6.1c-3,0-4.9-5.9-4.9-12.1
		c0-4.9,1.1-7.9,3.2-9.6c2.5-2,5.3-4.6,6.1-6.4V280c0-7-1.3-10.8-3.2-10.8c-0.7,0-1.3,0.7-1.7,1.7c-0.5,1.3-0.9,3.5-1.2,6.6
		c-0.2,1.7-0.7,2.4-1.3,2.4c-0.8,0-1.8-2-1.8-4.4c0-1.5,0.5-2.7,1.3-4c1.1-2.1,3.8-5.8,6.1-6.9c1.3,0,2.4,0.7,3.3,2.5
		c1.5,3.1,1.9,7.2,1.9,12.4v17.6c0,4.4,0.7,5.8,1.4,5.8c0.5,0,1-0.5,1.4-1.1l0.4,2.6L444.2,309.8z M441.1,285.2
		c-0.8,1-2.4,2.9-3.2,3.8c-1.5,1.7-2.4,3.6-2.4,7.2c0,5.2,1.5,7.4,2.7,7.4c0.9,0,2.2-1.5,2.9-3.2V285.2z"/>
	<path class="st12" d="M470.3,277.8c-0.8-5.8-2.2-9.9-4.1-9.9c-1.4,0-2.5,2.7-2.5,6.5c0,4,1.5,6.4,3.3,8.1c3,3,5.1,6.6,5.1,13.5
		c0,9.2-3.4,13.8-6.7,13.8c-2.1,0-3.9-1.8-4.6-3.2c-0.3-1.3-0.6-8.2-0.7-12.1l1.1-0.4c0.7,6.6,2.5,12.4,4.9,12.4
		c1.4,0,2.7-2.8,2.7-6.6c0-4-1-6.2-3.1-8.5c-2.3-2.6-5-6-5-13.8c0-7,2.4-12.9,6.1-12.9c1.7,0,2.8,0.9,3.6,1.7
		c0.3,2.1,0.8,8.2,0.9,10.5L470.3,277.8z"/>
	<path class="st12" d="M494.1,306.3c-0.9,0.3-2,0.9-3.1,1.5c-1.1,0.7-2.2,1.4-3,1.9l-0.3-0.5v-7c-0.9,1.7-1.7,3.4-2.8,5
		c-1.2,1.6-2,2.5-3.2,2.5c-2.8,0-5-4.2-5-14.7v-18.7c0-5.4-0.3-5.8-1.3-6.4l-1.1-0.7v-2.3c0.8-0.1,1.9-0.4,3-0.7
		c1.1-0.3,2.3-0.8,3-1.1c-0.1,3-0.1,7.7-0.1,14.2v13.2c0,8.2,1.7,10.7,3.4,10.7c1.4,0,2.8-1.3,4.1-4.4v-22.6c0-5.4-0.3-6-1.6-6.5
		l-1.4-0.6v-2.3c1.1-0.1,2.5-0.4,3.7-0.8c1.2-0.2,2.1-0.7,2.8-0.9v32.3c0,5.1,0.3,5.8,1.9,6l1.1,0.1V306.3z"/>
	<path class="st12" d="M511.1,299.6c-1.8,5.8-4.5,10.2-6.8,10.2c-5.2,0-8.2-10.1-8.2-20.5c0-7.4,1.4-14.1,4-19.1
		c2.2-4,4.6-5.6,6.1-5.6h0.1c1.6,0,2.9,1.2,3.6,2.6c0.5,1.1,0.6,1.9,0.6,3c0,2.3-0.9,4.5-1.4,4.5c-0.2,0-0.4-0.3-0.8-1.1
		c-1.3-2.9-2.6-4.2-4.1-4.2c-2.5,0-4.7,5-4.7,15.4c0,13.5,3.9,17.8,6,17.8c1.7,0,3-1.1,4.8-5.3L511.1,299.6z"/>
	<path class="st12" d="M528,299.6c-1.8,5.8-4.5,10.2-6.8,10.2c-5.2,0-8.2-10.1-8.2-20.5c0-7.4,1.4-14.1,4-19.1
		c2.2-4,4.6-5.6,6.1-5.6h0.1c1.6,0,2.9,1.2,3.6,2.6c0.5,1.1,0.6,1.9,0.6,3c0,2.3-0.9,4.5-1.4,4.5c-0.2,0-0.4-0.3-0.8-1.1
		c-1.3-2.9-2.6-4.2-4.1-4.2c-2.5,0-4.7,5-4.7,15.4c0,13.5,3.9,17.8,6,17.8c1.7,0,3-1.1,4.8-5.3L528,299.6z"/>
	<path class="st12" d="M544.5,299.9c-2.6,8.1-5.4,9.9-6.7,9.9c-4.9,0-7.8-9.9-7.8-20.8c0-6.5,0.9-12.4,2.5-16.8
		c1.7-4.7,3.9-7.5,6-7.5h0c3.4,0,6.1,7.3,6.1,15.1c0,1.9-0.2,2.8-0.9,3.2c-0.7,0.3-5.7,1.3-10.3,1.7c0.1,12.7,3,18,5.8,18
		c1.6,0,3.2-1.5,4.6-4.9L544.5,299.9z M537.6,268.4c-1.7,0-3.4,3.8-4,12c2.1,0,4.2,0,6.4-0.2c0.7-0.1,0.9-0.6,0.9-1.9
		C541,273.2,539.7,268.4,537.6,268.4L537.6,268.4z"/>
	<path class="st12" d="M557.4,277.8c-0.8-5.8-2.2-9.9-4.1-9.9c-1.4,0-2.5,2.7-2.5,6.5c0,4,1.5,6.4,3.3,8.1c3,3,5.1,6.6,5.1,13.5
		c0,9.2-3.4,13.8-6.7,13.8c-2.1,0-3.9-1.8-4.6-3.2c-0.3-1.3-0.6-8.2-0.7-12.1l1.1-0.4c0.7,6.6,2.5,12.4,4.9,12.4
		c1.4,0,2.7-2.8,2.7-6.6c0-4-1-6.2-3.1-8.5c-2.3-2.6-5-6-5-13.8c0-7,2.4-12.9,6.1-12.9c1.7,0,2.8,0.9,3.6,1.7
		c0.3,2.1,0.8,8.2,0.9,10.5L557.4,277.8z"/>
	<path class="st12" d="M572,277.8c-0.8-5.8-2.2-9.9-4.1-9.9c-1.4,0-2.5,2.7-2.5,6.5c0,4,1.5,6.4,3.3,8.1c3,3,5.1,6.6,5.1,13.5
		c0,9.2-3.4,13.8-6.7,13.8c-2.1,0-3.9-1.8-4.6-3.2c-0.3-1.3-0.6-8.2-0.7-12.1l1.1-0.4c0.7,6.6,2.5,12.4,4.9,12.4
		c1.4,0,2.7-2.8,2.7-6.6c0-4-1-6.2-3.1-8.5c-2.3-2.6-5-6-5-13.8c0-7,2.4-12.9,6.1-12.9c1.7,0,2.8,0.9,3.6,1.7
		c0.3,2.1,0.8,8.2,0.9,10.5L572,277.8z"/>
	<path class="st12" d="M578.9,265.8v-2.2c0-3.2,0.2-5.8,0.4-7.9c0.3-2.2,1-7,3.2-11.5c1.4-3.1,2.8-4.8,4.4-5.3
		c1.4,0.1,2.5,1.5,3.2,3.4c0.4,1.1,0.5,2.5,0.2,3.8c-0.2,0.8-0.4,1.6-0.8,2.3c-0.4,0.8-0.8,0.8-1.1-0.2c-0.8-1.9-2-3.9-3.3-3.9
		c-1,0-1.6,1.2-2,3c-0.5,1.7-0.9,6.3-0.8,14.6v4.1h4.7c0.2,0.9,0.1,3.4-0.4,4.1h-4.3v27.8c0,7.2,0.3,7.6,3.4,8.4v2.5H576V306
		c2.5-0.6,2.8-1.2,2.8-7.6v-28.4h-2.8l-0.2-1.1l1.1-3H578.9z"/>
	<path class="st12" d="M607.9,306.3c-0.9,0.3-2,0.9-3.1,1.5c-1.1,0.7-2.2,1.4-3,1.9l-0.3-0.5v-7c-0.9,1.7-1.7,3.4-2.8,5
		c-1.2,1.6-2,2.5-3.2,2.5c-2.8,0-5-4.2-5-14.7v-18.7c0-5.4-0.3-5.8-1.3-6.4l-1.1-0.7v-2.3c0.8-0.1,1.9-0.4,3-0.7
		c1.1-0.3,2.3-0.8,3-1.1c-0.1,3-0.1,7.7-0.1,14.2v13.2c0,8.2,1.7,10.7,3.4,10.7c1.4,0,2.8-1.3,4.1-4.4v-22.6c0-5.4-0.3-6-1.6-6.5
		l-1.4-0.6v-2.3c1.1-0.1,2.5-0.4,3.7-0.8c1.2-0.2,2.1-0.7,2.8-0.9v32.3c0,5.1,0.3,5.8,1.9,6l1.1,0.1V306.3z"/>
	<path class="st12" d="M609,308.6V306c2.5-0.7,2.8-1.3,2.8-7.8v-46c0-6.6-0.3-6.8-2.7-7.4v-2.4c2.1-0.6,4.7-2.3,6.1-3.4v59.3
		c0,6.6,0.3,7.2,2.9,7.8v2.6H609z"/>
	<path class="st12" d="M633.4,265.8v-2.2c0-3.2,0.2-5.8,0.4-7.9c0.3-2.2,1-7,3.2-11.5c1.4-3.1,2.8-4.8,4.4-5.3
		c1.4,0.1,2.5,1.5,3.2,3.4c0.4,1.1,0.5,2.5,0.2,3.8c-0.2,0.8-0.4,1.6-0.8,2.3c-0.4,0.8-0.8,0.8-1.1-0.2c-0.8-1.9-2-3.9-3.3-3.9
		c-1,0-1.6,1.2-2,3c-0.5,1.7-0.9,6.3-0.8,14.6v4.1h4.7c0.2,0.9,0.1,3.4-0.4,4.1h-4.3v27.8c0,7.2,0.3,7.6,3.4,8.4v2.5h-9.7V306
		c2.5-0.6,2.8-1.2,2.8-7.6v-28.4h-2.8l-0.2-1.1l1.1-3H633.4z"/>
	<path class="st12" d="M662.4,306.3c-0.9,0.3-2,0.9-3.1,1.5c-1.1,0.7-2.2,1.4-3,1.9l-0.3-0.5v-7c-0.9,1.7-1.7,3.4-2.8,5
		c-1.2,1.6-2,2.5-3.2,2.5c-2.8,0-5-4.2-5-14.7v-18.7c0-5.4-0.3-5.8-1.3-6.4l-1.1-0.7v-2.3c0.8-0.1,1.9-0.4,3-0.7
		c1.1-0.3,2.3-0.8,3-1.1c-0.1,3-0.1,7.7-0.1,14.2v13.2c0,8.2,1.7,10.7,3.4,10.7c1.4,0,2.8-1.3,4.1-4.4v-22.6c0-5.4-0.3-6-1.6-6.5
		l-1.4-0.6v-2.3c1.1-0.1,2.5-0.4,3.7-0.8c1.2-0.2,2.1-0.7,2.8-0.9v32.3c0,5.1,0.3,5.8,1.9,6l1.1,0.1V306.3z"/>
	<path class="st12" d="M672.3,308.4c-0.7,1-1.3,1.3-1.7,1.3c-2.6,0-4.1-3.8-4.1-11.7v-28.2h-2.7l-0.2-1.1l1.1-3h1.8v-7.1l2.9-6.8
		l0.5,0.3v13.7h4.4c0.4,1.1,0.3,3.2-0.3,4.1h-4.2v24.8c0,7.9,1.4,9.3,2.4,9.3c0.9,0,1.8-0.9,2.4-1.7l0.3,2.7L672.3,308.4z"/>
	<path class="st12" d="M696.3,306.3c-0.9,0.3-2,0.9-3.1,1.5c-1.1,0.7-2.2,1.4-3,1.9l-0.3-0.5v-7c-0.9,1.7-1.7,3.4-2.8,5
		c-1.2,1.6-2,2.5-3.2,2.5c-2.8,0-5-4.2-5-14.7v-18.7c0-5.4-0.3-5.8-1.3-6.4l-1.1-0.7v-2.3c0.8-0.1,1.9-0.4,3-0.7
		c1.1-0.3,2.3-0.8,3-1.1c-0.1,3-0.1,7.7-0.1,14.2v13.2c0,8.2,1.7,10.7,3.4,10.7c1.4,0,2.8-1.3,4.1-4.4v-22.6c0-5.4-0.3-6-1.6-6.5
		l-1.4-0.6v-2.3c1.1-0.1,2.5-0.4,3.7-0.8c1.2-0.2,2.1-0.7,2.8-0.9v32.3c0,5.1,0.3,5.8,1.9,6l1.1,0.1V306.3z"/>
	<path class="st12" d="M704.3,275.3c1.3-5.4,2.9-10.6,4.8-10.6c1.4,0,2.4,2.6,2.4,5c0,2.3-0.5,4.3-1.4,5.3c-0.5,0.5-0.8,0.3-1.1-0.3
		c-0.6-1.4-1.1-2-1.7-2c-1,0-2.2,2.9-3.1,8.1v17.5c0,6.4,0.2,7,3.3,7.6v2.6H698V306c2.4-0.6,2.8-1.2,2.8-7.6v-20.3
		c0-6.2-0.2-6.6-2.4-7.4v-2.2c2-0.8,3.8-1.9,5.9-4L704.3,275.3L704.3,275.3z"/>
	<path class="st12" d="M727.7,299.9c-2.6,8.1-5.4,9.9-6.7,9.9c-4.9,0-7.8-9.9-7.8-20.8c0-6.5,0.9-12.4,2.5-16.8
		c1.7-4.7,3.9-7.5,6-7.5h0c3.4,0,6.1,7.3,6.1,15.1c0,1.9-0.2,2.8-0.9,3.2c-0.7,0.3-5.7,1.3-10.3,1.7c0.1,12.7,3,18,5.8,18
		c1.6,0,3.2-1.5,4.6-4.9L727.7,299.9z M720.8,268.4c-1.7,0-3.4,3.8-4,12c2.1,0,4.2,0,6.4-0.2c0.7-0.1,0.9-0.6,0.9-1.9
		C724.2,273.2,722.9,268.4,720.8,268.4L720.8,268.4z"/>
	<path class="st12" d="M767.4,268.5c-2,0.8-2.4,1.9-3.2,7.2c-1.2,7.7-3,20.9-4.9,34.1h-1.2c-1.7-10.5-3.3-20.2-4.9-29.9
		c-1.5,9.8-3.1,19.5-4.7,29.9h-1.3c-1.4-11.6-3-23.1-4.6-34.9c-0.7-5-1-5.8-2.9-6.4v-2.6h8.5v2.6c-2.4,1-2.6,1.6-2,6
		c0.9,7.2,1.9,14.8,2.8,21.9h0.1c1.5-9.1,3-19.1,4.6-30h1.1c1.5,9.9,3.1,20.1,4.8,30.4h0.1c0.8-6.1,2-15,2.6-21.9
		c0.5-4.8,0.2-5.5-2.3-6.4v-2.6h7.2V268.5z"/>
	<path class="st12" d="M768.1,308.6V306c2.5-0.6,2.8-1.2,2.8-8.1v-19.7c0-6.2-0.1-6.6-2.5-7.6v-2.3c2.1-0.9,4.1-2,5.9-3.8V298
		c0,6.8,0.3,7.3,2.8,8.1v2.6H768.1z M770.2,251.1c0-3.2,1-5.5,2.2-5.5c1.2,0,2.1,2.3,2.1,5.5c0,2.8-0.9,5.3-2.1,5.3
		C771.2,256.4,770.2,253.9,770.2,251.1z"/>
	<path class="st12" d="M787.1,308.4c-0.7,1-1.3,1.3-1.7,1.3c-2.6,0-4.1-3.8-4.1-11.7v-28.2h-2.7l-0.2-1.1l1.1-3h1.8v-7.1l2.9-6.8
		l0.5,0.3v13.7h4.4c0.4,1.1,0.3,3.2-0.3,4.1h-4.2v24.8c0,7.9,1.4,9.3,2.4,9.3c0.9,0,1.8-0.9,2.4-1.7l0.3,2.7L787.1,308.4z"/>
	<path class="st12" d="M802.2,308.6V306c2.2-0.6,2.6-1.3,2.6-7.6v-15.9c0-8.1-1.3-11.9-3.8-11.9c-1.4,0-2.9,1.7-4,4.8v23.1
		c0,6.2,0.2,7,2.5,7.6v2.6h-8.7V306c2.4-0.6,2.7-1.2,2.7-7.6v-46.6c0-6.2-0.1-6.5-2.6-7.1v-2.3c1.9-0.7,4.4-2.1,6.1-3.4v32.9
		c1.5-3.6,3.6-7.1,5.7-7.1c3.3,0,5.6,5,5.6,17v16.7c0,6.6,0.3,7,2.6,7.6v2.6H802.2z"/>
	<path class="st12" d="M837.7,260.2c-0.7-6.3-1.9-13.4-5.3-13.4c-3,0-4.4,5.3-4.4,10.7c0,6.9,1.8,10.3,5.1,14.2
		c3.4,4.2,6.9,8.8,6.9,19.6c0,10.5-3.6,18.9-9,18.9c-1.7,0-3-0.7-4-1.6c-1-0.8-1.6-1.6-2-2.1c-0.3-1.9-0.9-10.9-1.1-15.6l1.2-0.9
		c0.7,6.2,2.6,16.5,6.7,16.5c2.9,0,4.6-4.5,4.6-11.5c0-7.1-2.1-10.5-5.2-14.5c-2.8-3.5-6.6-8.4-6.6-19.2c0-9.8,3.2-17.9,8.4-17.9
		c1.9,0,3.7,1.1,5.2,2.3c0.2,3.5,0.3,7.5,0.7,14L837.7,260.2z"/>
	<path class="st12" d="M850.8,308.4c-0.7,1-1.3,1.3-1.7,1.3c-2.6,0-4.1-3.8-4.1-11.7v-28.2h-2.7l-0.2-1.1l1.1-3h1.8v-7.1l2.9-6.8
		l0.5,0.3v13.7h4.4c0.4,1.1,0.3,3.2-0.3,4.1h-4.2v24.8c0,7.9,1.4,9.3,2.4,9.3c0.9,0,1.8-0.9,2.4-1.7l0.3,2.7L850.8,308.4z"/>
	<path class="st12" d="M874.8,306.3c-0.9,0.3-2,0.9-3.1,1.5c-1.1,0.7-2.2,1.4-3,1.9l-0.3-0.5v-7c-0.9,1.7-1.7,3.4-2.8,5
		c-1.2,1.6-2,2.5-3.2,2.5c-2.8,0-5-4.2-5-14.7v-18.7c0-5.4-0.3-5.8-1.3-6.4l-1.1-0.7v-2.3c0.8-0.1,1.9-0.4,3-0.7
		c1.1-0.3,2.3-0.8,3-1.1c-0.1,3-0.1,7.7-0.1,14.2v13.2c0,8.2,1.7,10.7,3.4,10.7c1.4,0,2.8-1.3,4.1-4.4v-22.6c0-5.4-0.3-6-1.6-6.5
		l-1.4-0.6v-2.3c1.1-0.1,2.5-0.4,3.7-0.8c1.2-0.2,2.1-0.7,2.8-0.9v32.3c0,5.1,0.3,5.8,1.9,6l1.1,0.1V306.3z"/>
	<path class="st12" d="M896.2,306.1c-0.9,0.4-4,1.7-6.5,3.7v-6.3l-2.4,3.5c-1.6,2.3-2.6,2.8-3,2.8c-3.3,0-7.6-7.1-7.6-20.9
		c0-13.6,4.9-24.2,10.4-24.2c0.6,0,1.6,0.3,2.6,1.1V252c0-6.4-0.3-6.6-3.1-7.1v-2.5c2.2-0.7,4.9-2.1,6.5-3.4V297
		c0,5.4,0.3,5.8,1.9,6.2l1.1,0.3V306.1z M889.7,273.6c-1-3.4-2.5-5.1-4-5.1c-1.7,0-5,3.6-5,17.8c0,11.7,3,17.1,5.4,17.1
		c1.3,0,2.6-1.5,3.6-3.1V273.6z"/>
	<path class="st12" d="M915.8,268.5c-2.1,0.8-2.5,1.6-3.5,7.2c-1,5-2.3,13.2-5,29.1c-2.7,15.6-3.6,21.2-4.2,26.8
		c-0.2,1.9-0.7,2.3-1.2,2.3c-1.1,0-2.4-2.4-2.4-5c0-1.6,0.3-2.5,1-3.6c1.4-2,2.1-4.2,3.1-8.7c0.7-3.2,1-5.2,1.2-6.3
		c0.2-1.5,0.2-2.8-0.1-4.4c-1.7-11.6-3.5-23.8-4.6-30.3c-0.9-5.1-1.3-6.4-3.4-7.2v-2.6h8.4l0.1,2.6c-1.8,0.8-2.1,1.7-1.6,5.2l3.6,24
		c1.1-6.2,2.8-17.8,3.6-23.7c0.5-3.6,0.2-4.8-2-5.6v-2.6h7.2V268.5z"/>
	<path class="st12" d="M941.1,260.2c-0.7-6.3-1.9-13.4-5.3-13.4c-3,0-4.4,5.3-4.4,10.7c0,6.9,1.8,10.3,5.1,14.2
		c3.4,4.2,6.9,8.8,6.9,19.6c0,10.5-3.6,18.9-9,18.9c-1.7,0-3-0.7-4-1.6c-1-0.8-1.6-1.6-2-2.1c-0.3-1.9-0.9-10.9-1.1-15.6l1.2-0.9
		c0.7,6.2,2.6,16.5,6.7,16.5c2.9,0,4.6-4.5,4.6-11.5c0-7.1-2.1-10.5-5.2-14.5c-2.8-3.5-6.6-8.4-6.6-19.2c0-9.8,3.2-17.9,8.4-17.9
		c1.9,0,3.7,1.1,5.2,2.3c0.2,3.5,0.3,7.5,0.7,14L941.1,260.2z"/>
	<path class="st12" d="M954.2,308.4c-0.7,1-1.3,1.3-1.7,1.3c-2.6,0-4.1-3.8-4.1-11.7v-28.2h-2.7l-0.2-1.1l1.1-3h1.8v-7.1l2.9-6.8
		l0.5,0.3v13.7h4.4c0.4,1.1,0.3,3.2-0.3,4.1h-4.2v24.8c0,7.9,1.4,9.3,2.4,9.3c0.9,0,1.8-0.9,2.4-1.7l0.3,2.7L954.2,308.4z"/>
	<path class="st12" d="M971.2,309.8c-0.7,0-1.6-0.9-2-1.9c-0.5-1.3-0.8-2.6-1-4.2c-1.6,2.5-3.5,6.1-4.6,6.1c-3,0-4.9-5.9-4.9-12.1
		c0-4.9,1.1-7.9,3.2-9.6c2.5-2,5.3-4.6,6.1-6.4V280c0-7-1.3-10.8-3.2-10.8c-0.7,0-1.3,0.7-1.7,1.7c-0.5,1.3-0.9,3.5-1.2,6.6
		c-0.2,1.7-0.7,2.4-1.3,2.4c-0.8,0-1.8-2-1.8-4.4c0-1.5,0.5-2.7,1.3-4c1.1-2.1,3.8-5.8,6.1-6.9c1.3,0,2.4,0.7,3.3,2.5
		c1.5,3.1,1.9,7.2,1.9,12.4v17.6c0,4.4,0.7,5.8,1.4,5.8c0.5,0,1-0.5,1.4-1.1l0.4,2.6L971.2,309.8z M968.1,285.2
		c-0.8,1-2.4,2.9-3.2,3.8c-1.5,1.7-2.4,3.6-2.4,7.2c0,5.2,1.5,7.4,2.7,7.4c0.9,0,2.2-1.5,2.9-3.2V285.2z"/>
	<path class="st12" d="M984.2,308.4c-0.7,1-1.3,1.3-1.7,1.3c-2.6,0-4.1-3.8-4.1-11.7v-28.2h-2.7l-0.2-1.1l1.1-3h1.8v-7.1l2.9-6.8
		l0.5,0.3v13.7h4.4c0.4,1.1,0.3,3.2-0.3,4.1h-4.2v24.8c0,7.9,1.4,9.3,2.4,9.3c0.9,0,1.8-0.9,2.4-1.7l0.3,2.7L984.2,308.4z"/>
	<path class="st12" d="M988.5,308.6V306c2.5-0.6,2.8-1.2,2.8-8.1v-19.7c0-6.2-0.1-6.6-2.5-7.6v-2.3c2.1-0.9,4.1-2,5.9-3.8V298
		c0,6.8,0.3,7.3,2.8,8.1v2.6H988.5z M990.6,251.1c0-3.2,1-5.5,2.2-5.5c1.2,0,2.1,2.3,2.1,5.5c0,2.8-0.9,5.3-2.1,5.3
		C991.6,256.4,990.6,253.9,990.6,251.1z"/>
	<path class="st12" d="M1008.6,264.7c5.1,0,8.8,9.9,8.8,21.7c0,15.8-4.8,23.3-8.8,23.3c-5.7,0-9-10.7-9-21.5
		C999.6,272.2,1004.8,264.7,1008.6,264.7L1008.6,264.7z M1008.1,268c-2.3,0-4.4,5.8-4.4,16.9c0,12.4,2.1,21.5,5.3,21.5
		c2.3,0,4.4-3.9,4.4-17.6C1013.3,277,1011.5,268,1008.1,268L1008.1,268z"/>
	<path class="st12" d="M1031.4,308.6V306c2.3-0.6,2.5-1.4,2.5-8.3v-16c0-6.8-1.1-10.9-3.5-10.9c-1.5,0-3,2.3-4.2,4.8v22.7
		c0,6.7,0.2,7.1,2.5,7.7v2.6h-8.8V306c2.6-0.8,2.9-1.3,2.9-7.8v-19.7c0-6.4-0.3-6.8-2.4-7.7v-2.5c1.9-0.7,4-2,5.8-3.9v7.9
		c0.8-1.5,1.7-3,2.7-4.7c1.1-1.8,2.1-2.9,3.3-2.9c3.2,0,5.2,5.6,5.2,15.3v18.3c0,6.7,0.2,7,2.5,7.7v2.6H1031.4z"/>
</g>
</svg>
