<?xml version="1.0" encoding="utf-8"?>
<!-- Generator: Adobe Illustrator 25.0.1, SVG Export Plug-In . SVG Version: 6.00 Build 0)  -->
<svg version="1.2" baseProfile="tiny" id="Layer_1" xmlns="http://www.w3.org/2000/svg" xmlns:xlink="http://www.w3.org/1999/xlink"
	 x="0px" y="0px" viewBox="0 0 1440 1440" overflow="visible" xml:space="preserve">
<path fill="#6F95A6" d="M1002,1080.2c-10.5,0-19.1-23.2-19.1-52.1c0-28.5,8.6-52.1,19.1-52.1h282.7c-2.8-14.4-8.6-23.6-14.7-23.6
	H707.9c-15.2,0-27.7,33.7-27.7,75.7c0,41.6,12.4,75.3,27.7,75.7h562.2c6.1,0,11.6-9.2,14.7-23.6H1002z"/>
<path fill="#CCCBCB" d="M1285,1004.9h-268.9c-0.8,0-1.7-1.8-1.7-4.4c0-2.2,0.8-4.4,1.7-4.4H1285c0.8,0,1.7,1.8,1.7,4.4
	C1286.7,1003.2,1285.8,1004.9,1285,1004.9z"/>
<path fill="#CCCBCB" d="M1285,1052.2h-268.9c-0.8,0-1.7-1.8-1.7-4.4c0-2.2,0.8-4.4,1.7-4.4H1285c0.8,0,1.7,1.8,1.7,4.4
	S1285.8,1052.2,1285,1052.2z"/>
<path fill="#EBD49E" d="M928.7,934c-10.5,0-19.1-23.2-19.1-52.1c0-28.5,8.6-52.1,19.1-52.1h282.7c-2.8-14.4-8.6-23.6-14.7-23.6
	H634.9c-15.2,0-27.7,33.7-27.7,75.7c0,41.6,12.4,75.3,27.7,75.7H1197c6.1,0,11.6-9.2,14.7-23.6H928.7z"/>
<path fill="#CCCBCB" d="M1212,858.7H943.1c-0.8,0-1.7-1.8-1.7-4.4c0-2.2,0.8-4.4,1.7-4.4H1212c0.8,0,1.7,1.8,1.7,4.4
	C1213.6,856.5,1212.8,858.7,1212,858.7L1212,858.7z"/>
<path fill="#CCCBCB" d="M1212,886.3H943.1c-0.8,0-1.7-1.8-1.7-4.4c0-2.2,0.8-4.4,1.7-4.4H1212c0.8,0,1.7,1.8,1.7,4.4
	C1213.6,884.1,1212.8,886.3,1212,886.3L1212,886.3z"/>
<path fill="#CCCBCB" d="M1212,913.9H943.1c-0.8,0-1.7-1.8-1.7-4.4c0-2.2,0.8-4.4,1.7-4.4H1212c0.8,0,1.7,1.8,1.7,4.4
	C1213.6,911.7,1212.8,913.9,1212,913.9L1212,913.9z"/>
<path fill="#6F95A6" d="M855.6,782.5c-10.5,0-19.1-23.2-19.1-52.1c0-28.5,8.6-52.1,19.1-52.1h282.7c-2.8-14.4-8.6-23.6-14.7-23.6
	H561.8c-15.2,0-27.7,33.7-27.7,75.7c0,41.6,12.4,75.3,27.7,75.7H1124c6.1,0,11.6-9.2,14.7-23.6H855.6z"/>
<path fill="#CCCBCB" d="M1138.9,734.8H870c-0.8,0-1.7-1.8-1.7-4.4c0-2.2,0.8-4.4,1.7-4.4l0,0h268.9c0.8,0,1.7,1.8,1.7,4.4
	C1140.6,733.1,1139.8,734.8,1138.9,734.8L1138.9,734.8z"/>
<path fill="#CCCBCB" d="M1138.9,762.4H870c-0.8,0-1.7-1.8-1.7-4.4c0-2.2,0.8-4.4,1.7-4.4h268.9c0.8,0,1.7,1.8,1.7,4.4
	C1140.6,760.7,1139.8,762.4,1138.9,762.4L1138.9,762.4z"/>
<g>
	<path fill="#6F95A6" d="M379.6,382.1c0,7.4-7.5,13.2-22.5,17.4c-13.4,3.8-29.8,5.7-48.9,5.7c-24.5,0-44.2-3.1-58.8-9.2v3.2
		c0,2.5-2.4,3.7-7.1,3.7s-7.1-1.2-7.1-3.7v-15.5c0-2.5,2.4-3.8,7.1-3.8c4.4,0,6.7,1.1,7.1,3.4c0.7,5.2,7.7,9.3,21,12.4
		c11.2,2.6,23.8,3.9,37.8,3.9c15,0,27.9-1.4,38.7-4.3c12.4-3.3,18.7-7.8,18.7-13.5c0-6.1-7.8-10.6-23.4-13.3c-5.5-1-16.7-2-33.6-3.1
		c-20.2-1.3-35.1-3.2-44.7-5.5c-14.2-3.4-21.4-8.5-21.4-15.3c0-6.6,6.8-12,20.3-16c12.2-3.7,27-5.5,44.2-5.5
		c19.7,0,36.7,2.5,50.9,7.4v-1.9c0-2.5,2.4-3.7,7.1-3.7c4.7,0,7.1,1.2,7.1,3.7V343c0,2.5-2.4,3.7-7.1,3.7c-4.4,0-6.7-1.1-7.1-3.4
		c-0.7-4.5-6.6-8.2-17.7-11c-9.8-2.4-20.7-3.6-32.8-3.6c-13.3,0-24.8,1.3-34.5,3.9c-11,3-16.5,7-16.5,12.1c0,4.5,4.7,8,14.1,10.5
		c7.6,2.1,20.8,3.7,39.7,4.9c19.3,1.2,32.5,2.5,39.7,3.8C369.8,367.5,379.6,373.6,379.6,382.1z"/>
	<path fill="#6F95A6" d="M391.2,728.9c0,1.9-3.1,2.8-9.4,2.8h-26.1v-8.2c-19.3,7-40.1,10.4-62.5,10.4c-13.8,0-24.3-1.5-31.4-4.5
		c-9.3-3.9-14-8.5-14-13.7v-36.2h-19c-6.3,0-9.4-1-9.4-2.9c0-1.9,3.1-2.8,9.4-2.8H262v41.9c0,3.6,2.9,6.6,8.6,9
		c5.7,2.4,13.1,3.6,22,3.6c23,0,44-4.2,63.2-12.6v-36.2h-26.1c-6.3,0-9.4-1-9.4-2.9c0-1.9,3.1-2.8,9.4-2.8h40.2v52.3h11.9
		C388.1,726.1,391.2,727,391.2,728.9z"/>
	<path fill="#6F95A6" d="M405,893.2c0,1.9-3.2,2.8-9.6,2.8h-33.1v-11.2c-16.4,8.9-37.2,13.4-62.4,13.4c-13.4,0-25.9-1.4-37.5-4.2
		c-11.5-2.8-20.5-6.6-26.9-11.4c-6.8-5-10.3-10.1-10.3-15.4c0-5.4,3.4-10.6,10.3-15.5c6.8-4.9,16.1-8.7,27.7-11.5
		c11.7-2.7,23.9-4.1,36.8-4.1c24.7,0,45.4,4.5,62.2,13.4v-31.7h-18.8c-6.4,0-9.6-1-9.6-2.9c0-1.9,3.2-2.8,9.6-2.8h33.1v78.3h18.8
		C401.8,890.4,405,891.3,405,893.2z M362.3,867.2c0-7-5.9-12.9-17.7-17.9c-11.8-5-26.3-7.5-43.7-7.5c-17.4,0-32,2.5-43.8,7.5
		c-11.8,5-17.7,11-17.7,17.9s5.9,12.9,17.7,17.9c11.8,5,26.4,7.5,43.8,7.5c17.3,0,31.9-2.5,43.9-7.6
		C356.5,880,362.3,874.1,362.3,867.2z"/>
	<path fill="#6F95A6" d="M401.8,1005.2c0,1.3-1.5,2.1-4.4,2.5c-1.1,0.2-4.3,0.3-9.4,0.3l-89.4,72.4h22c6.3,0,9.4,0.9,9.4,2.8
		c0,1.9-3.1,2.8-9.4,2.8h-81.4c-6.3,0-9.4-0.9-9.4-2.8c0-1.9,3.1-2.8,9.4-2.8h44.2l24.9-20.2l-65.6-52.2h-4.2
		c-6.3,0-9.4-0.9-9.4-2.8c0-1.2,1.3-2.1,4-2.6c1.1-0.2,2.9-0.3,5.4-0.3h38.7c6.3,0,9.4,1,9.4,2.9c0,1.9-3.1,2.8-9.4,2.8h-19
		l57.7,46.1l56.8-46.1h-19c-6.3,0-9.4-1-9.4-2.9c0-1.9,3.1-2.8,9.4-2.8h38.5C398.6,1002.4,401.8,1003.3,401.8,1005.2z"/>
</g>
<g>
	<path fill="#6F95A6" d="M181,546.1c0,9.2-7,16.5-21.1,21.8c-12.6,4.8-27.9,7.2-45.8,7.2c-23,0-41.4-3.8-55.1-11.5v4
		c0,3.1-2.2,4.7-6.6,4.7c-4.4,0-6.6-1.6-6.6-4.7v-19.4c0-3.2,2.2-4.8,6.6-4.8c4.1,0,6.3,1.4,6.6,4.3c0.6,6.5,7.2,11.7,19.7,15.5
		c10.5,3.2,22.3,4.9,35.4,4.9c14.1,0,26.1-1.8,36.2-5.4c11.7-4.1,17.5-9.8,17.5-16.9c0-7.7-7.3-13.3-21.9-16.7
		c-5.1-1.2-15.6-2.5-31.5-3.9c-18.9-1.7-32.9-4-41.9-6.9c-13.3-4.3-20-10.7-20-19.2c0-8.3,6.4-15,19.1-20.1
		c11.4-4.6,25.2-6.9,41.4-6.9c18.5,0,34.4,3.1,47.7,9.3v-2.3c0-3.1,2.2-4.7,6.6-4.7c4.4,0,6.6,1.6,6.6,4.7V497
		c0,3.1-2.2,4.7-6.6,4.7c-4.1,0-6.3-1.4-6.6-4.3c-0.6-5.7-6.1-10.3-16.5-13.7c-9.1-3-19.4-4.5-30.7-4.5c-12.5,0-23.3,1.6-32.3,4.9
		c-10.3,3.7-15.4,8.8-15.4,15.2c0,5.6,4.4,10,13.2,13.1c7.1,2.6,19.5,4.6,37.2,6.2c18.1,1.6,30.4,3.2,37.2,4.8
		C171.8,527.8,181,535.4,181,546.1z"/>
	<path fill="#6F95A6" d="M380.7,563.6c0,2.6-8.8,5.4-26.5,8.3c-13,2.2-25.5,3.3-37.3,3.3c-14.1,0-25.7-1.6-34.8-4.9
		c-10.5-3.8-15.7-9.3-15.7-16.4V507h-24.4c-5.9,0-8.8-1.2-8.8-3.6c0-2.3,2.9-3.5,8.8-3.5h24.4v-20.8c0-3.1,2.2-4.7,6.6-4.7
		c4.5,0,6.8,1.6,6.8,4.7v20.8h71.8c5.9,0,8.8,1.2,8.8,3.6c0,2.3-2.9,3.5-8.8,3.5h-71.8v46.8c0,4.9,3.9,8.6,11.8,11.1
		c6.4,2.1,14.5,3.2,24.4,3.2c8.1,0,17.2-0.6,27.4-1.9c10.9-1.3,19.5-3,25.8-5c2.3-0.7,4-1.1,5.2-1.1
		C378.6,560.1,380.7,561.2,380.7,563.6z"/>
	<path fill="#6F95A6" d="M578.5,568.8c0,2.3-3,3.5-9,3.5h-31v-10.1c-19.2,8.6-39.7,12.9-61.6,12.9c-13.9,0-25.5-1.8-34.8-5.4
		c-10.5-4.1-15.7-9.7-15.7-16.7c0-8.6,7.9-15.3,23.6-19.9c12.7-3.7,27.9-5.5,45.5-5.5c12.6,0,26.9,0.9,43,2.6v-11.4
		c0-5-4.6-8.7-13.9-11.3c-7.4-2-16.2-3-26.5-3c-10.2,0-24.6,1.6-43.3,4.8c-3.3,0.6-5.4,0.8-6.5,0.8c-4.1,0-6.1-1.2-6.1-3.5
		c0-0.9,0.5-1.7,1.6-2.3c1.5-0.8,7.4-2,17.8-3.4c16.6-2.3,29-3.5,37.2-3.5c13.5,0,25.4,1.7,35.4,5.2c11.8,4,17.6,9.4,17.6,16.2v46.5
		h17.6C575.5,565.3,578.5,566.5,578.5,568.8z M538.5,552.9v-15.5c-12.1-1.8-25.9-2.8-41.6-2.8c-19.1,0-34.1,2.2-45,6.6
		c-8.2,3.3-12.3,7.2-12.3,11.8c0,5.1,3.9,9,11.7,11.6c6.6,2.3,15,3.4,25,3.4C497.8,568.1,518.5,563,538.5,552.9z"/>
	<path fill="#6F95A6" d="M767.8,563.6c0,2.6-8.8,5.4-26.5,8.3c-13,2.2-25.5,3.3-37.3,3.3c-14.1,0-25.7-1.6-34.8-4.9
		c-10.5-3.8-15.7-9.3-15.7-16.4V507H629c-5.9,0-8.8-1.2-8.8-3.6c0-2.3,2.9-3.5,8.8-3.5h24.4v-20.8c0-3.1,2.2-4.7,6.6-4.7
		c4.5,0,6.8,1.6,6.8,4.7v20.8h71.8c5.9,0,8.8,1.2,8.8,3.6c0,2.3-2.9,3.5-8.8,3.5h-71.8v46.8c0,4.9,3.9,8.6,11.8,11.1
		c6.4,2.1,14.5,3.2,24.4,3.2c8.1,0,17.2-0.6,27.4-1.9c10.9-1.3,19.5-3,25.8-5c2.3-0.7,4-1.1,5.2-1.1
		C765.7,560.1,767.8,561.2,767.8,563.6z"/>
	<path fill="#6F95A6" d="M955.5,568.8c0,2.3-3,3.5-9,3.5H829.3c-5.9,0-8.8-1.2-8.8-3.5c0-2.3,2.9-3.5,8.8-3.5h52V507h-38.6
		c-6,0-9-1.2-9-3.5c0-2.4,3-3.6,9-3.6h51.8v65.5h52C952.5,565.3,955.5,566.5,955.5,568.8z M894.1,481.9h-19.5v-18.2h19.5V481.9z"/>
	<path fill="#6F95A6" d="M1155,536.3c0,10.8-7.2,20-21.6,27.5c-14.4,7.5-31.8,11.3-52.3,11.3c-20.5,0-37.9-3.8-52.4-11.3
		c-14.4-7.5-21.7-16.7-21.7-27.6c0-10.9,7.2-20.1,21.7-27.6c14.4-7.5,31.9-11.3,52.4-11.3c20.5,0,37.9,3.8,52.3,11.3
		C1147.8,516.2,1155,525.4,1155,536.3z M1141.6,536.3c0-8.9-5.9-16.5-17.7-22.6c-11.8-6.1-26.1-9.2-42.9-9.2
		c-16.8,0-31.1,3.1-42.9,9.3c-11.8,6.2-17.7,13.7-17.7,22.6c0,8.9,5.9,16.4,17.8,22.6c11.9,6.2,26.1,9.3,42.8,9.3
		c16.8,0,31.1-3.1,42.9-9.3C1135.7,552.7,1141.6,545.2,1141.6,536.3z"/>
	<path fill="#6F95A6" d="M1352.8,568.8c0,2.3-2.9,3.5-8.8,3.5h-35.4c-6,0-9-1.2-9-3.5c0-2.3,3-3.5,9-3.5h11v-43.1
		c0-5.5-3.8-9.8-11.3-13.1c-7-3.1-15.8-4.6-26.3-4.6c-10.7,0-20.2,1.6-28.5,4.9c-4.8,1.9-12,5.8-21.6,11.8v44.1h15
		c5.9,0,8.8,1.2,8.8,3.5c0,2.3-2.9,3.5-8.8,3.5h-43.1c-5.9,0-8.8-1.2-8.8-3.5c0-2.3,2.9-3.5,8.8-3.5h15V507h-11.2
		c-5.9,0-8.8-1.2-8.8-3.6c0-2.3,2.9-3.5,8.8-3.5h24.4v10.6c16.3-8.8,33-13.1,50.2-13.1c19.4,0,34,3.9,43.6,11.7
		c4.7,3.9,7.1,7.9,7.1,12v44.3h11.2C1349.9,565.3,1352.8,566.5,1352.8,568.8z"/>
</g>
<image width="1386" height="1407" xlink:href="5991CE90.png"  transform="matrix(1 0 0 1 30 27)">
</image>
</svg>
