<?xml version="1.0" encoding="utf-8"?>
<!-- Generator: Adobe Illustrator 25.0.1, SVG Export Plug-In . SVG Version: 6.00 Build 0)  -->
<svg version="1.2" baseProfile="tiny" id="Layer_1" xmlns="http://www.w3.org/2000/svg" xmlns:xlink="http://www.w3.org/1999/xlink"
	 x="0px" y="0px" viewBox="0 0 42.5 56.7" overflow="visible" xml:space="preserve">
<path fill="#7097A7" d="M29.5,43.1c-0.3,0-0.6-0.9-0.6-2c0-1.1,0.3-2,0.6-2h8.4c-0.1-0.6-0.3-0.9-0.4-0.9H20.8
	c-0.5,0-0.8,1.3-0.8,2.9c0,1.6,0.4,2.9,0.8,2.9h16.6c0.2,0,0.3-0.4,0.4-0.9H29.5z"/>
<path fill="#CDCCCC" d="M37.9,40.2h-8c0,0,0-0.1,0-0.2c0-0.1,0-0.2,0-0.2h8c0,0,0,0.1,0,0.2S37.9,40.2,37.9,40.2z"/>
<path fill="#CDCCCC" d="M37.9,42.1h-8c0,0,0-0.1,0-0.2c0-0.1,0-0.2,0-0.2h8c0,0,0,0.1,0,0.2S37.9,42.1,37.9,42.1z"/>
<path fill="#EDD5A0" d="M27.3,37.5c-0.3,0-0.6-0.9-0.6-2c0-1.1,0.3-2,0.6-2h8.4c-0.1-0.6-0.3-0.9-0.4-0.9H18.6
	c-0.5,0-0.8,1.3-0.8,2.9c0,1.6,0.4,2.9,0.8,2.9h16.6c0.2,0,0.3-0.4,0.4-0.9H27.3z"/>
<path fill="#CDCCCC" d="M35.7,34.5h-8c0,0,0-0.1,0-0.2c0-0.1,0-0.2,0-0.2h8c0,0,0,0.1,0,0.2C35.8,34.5,35.8,34.5,35.7,34.5
	L35.7,34.5z"/>
<path fill="#CDCCCC" d="M35.7,35.6h-8c0,0,0-0.1,0-0.2c0-0.1,0-0.2,0-0.2h8c0,0,0,0.1,0,0.2C35.8,35.5,35.8,35.6,35.7,35.6
	L35.7,35.6z"/>
<path fill="#CDCCCC" d="M35.7,36.7h-8c0,0,0-0.1,0-0.2c0-0.1,0-0.2,0-0.2h8c0,0,0,0.1,0,0.2C35.8,36.6,35.8,36.7,35.7,36.7
	L35.7,36.7z"/>
<path fill="#7097A7" d="M25.2,31.6c-0.3,0-0.6-0.9-0.6-2c0-1.1,0.3-2,0.6-2h8.4c-0.1-0.6-0.3-0.9-0.4-0.9H16.5
	c-0.5,0-0.8,1.3-0.8,2.9c0,1.6,0.4,2.9,0.8,2.9h16.6c0.2,0,0.3-0.4,0.4-0.9H25.2z"/>
<path fill="#CDCCCC" d="M33.6,29.7h-8c0,0,0-0.1,0-0.2c0-0.1,0-0.2,0-0.2l0,0h8c0,0,0,0.1,0,0.2S33.6,29.7,33.6,29.7L33.6,29.7z"/>
<path fill="#CDCCCC" d="M33.6,30.8h-8c0,0,0-0.1,0-0.2c0-0.1,0-0.2,0-0.2h8c0,0,0,0.1,0,0.2S33.6,30.8,33.6,30.8L33.6,30.8z"/>
<g>
	<path fill="#7097A7" d="M11.1,16c0,0.3-0.2,0.5-0.7,0.7C10,16.9,9.5,17,9,17c-0.7,0-1.3-0.1-1.7-0.4v0.1c0,0.1-0.1,0.1-0.2,0.1
		c-0.1,0-0.2,0-0.2-0.1v-0.6C6.8,16,6.9,16,7,16c0.1,0,0.2,0,0.2,0.1c0,0.2,0.2,0.4,0.6,0.5c0.3,0.1,0.7,0.2,1.1,0.2
		c0.4,0,0.8-0.1,1.1-0.2c0.4-0.1,0.6-0.3,0.6-0.5c0-0.2-0.2-0.4-0.7-0.5c-0.2,0-0.5-0.1-1-0.1c-0.6-0.1-1-0.1-1.3-0.2
		C7.2,15.1,7,14.9,7,14.6c0-0.3,0.2-0.5,0.6-0.6c0.4-0.1,0.8-0.2,1.3-0.2c0.6,0,1.1,0.1,1.5,0.3V14c0-0.1,0.1-0.1,0.2-0.1
		c0.1,0,0.2,0,0.2,0.1v0.6c0,0.1-0.1,0.1-0.2,0.1c-0.1,0-0.2,0-0.2-0.1c0-0.2-0.2-0.3-0.5-0.4C9.6,14,9.3,14,9,14
		c-0.4,0-0.7,0.1-1,0.2c-0.3,0.1-0.5,0.3-0.5,0.5c0,0.2,0.1,0.3,0.4,0.4c0.2,0.1,0.6,0.1,1.2,0.2c0.6,0,1,0.1,1.2,0.1
		C10.8,15.5,11.1,15.7,11.1,16z"/>
	<path fill="#7097A7" d="M11.4,29.5c0,0.1-0.1,0.1-0.3,0.1h-0.8v-0.3c-0.6,0.3-1.2,0.4-1.9,0.4c-0.4,0-0.7-0.1-0.9-0.2
		c-0.3-0.2-0.4-0.3-0.4-0.5v-1.4H6.6c-0.2,0-0.3,0-0.3-0.1c0-0.1,0.1-0.1,0.3-0.1h1V29c0,0.1,0.1,0.3,0.3,0.3
		c0.2,0.1,0.4,0.1,0.7,0.1c0.7,0,1.3-0.2,1.9-0.5v-1.4H9.6c-0.2,0-0.3,0-0.3-0.1c0-0.1,0.1-0.1,0.3-0.1h1.2v2h0.4
		C11.3,29.4,11.4,29.4,11.4,29.5z"/>
	<path fill="#7097A7" d="M11.8,35.9c0,0.1-0.1,0.1-0.3,0.1h-1v-0.4c-0.5,0.3-1.1,0.5-1.8,0.5c-0.4,0-0.8-0.1-1.1-0.2
		c-0.3-0.1-0.6-0.3-0.8-0.4c-0.2-0.2-0.3-0.4-0.3-0.6c0-0.2,0.1-0.4,0.3-0.6c0.2-0.2,0.5-0.3,0.8-0.4c0.3-0.1,0.7-0.2,1.1-0.2
		c0.7,0,1.3,0.2,1.8,0.5V33H10c-0.2,0-0.3,0-0.3-0.1c0-0.1,0.1-0.1,0.3-0.1h1v3h0.6C11.7,35.8,11.8,35.8,11.8,35.9z M10.6,34.9
		c0-0.3-0.2-0.5-0.5-0.7c-0.3-0.2-0.8-0.3-1.3-0.3c-0.5,0-0.9,0.1-1.3,0.3c-0.4,0.2-0.5,0.4-0.5,0.7s0.2,0.5,0.5,0.7
		c0.4,0.2,0.8,0.3,1.3,0.3c0.5,0,0.9-0.1,1.3-0.3C10.4,35.4,10.6,35.1,10.6,34.9z"/>
	<path fill="#7097A7" d="M11.7,40.2c0,0.1,0,0.1-0.1,0.1c0,0-0.1,0-0.3,0l-2.6,2.8h0.7c0.2,0,0.3,0,0.3,0.1c0,0.1-0.1,0.1-0.3,0.1
		H6.9c-0.2,0-0.3,0-0.3-0.1c0-0.1,0.1-0.1,0.3-0.1h1.3L9,42.4l-1.9-2H6.9c-0.2,0-0.3,0-0.3-0.1c0,0,0-0.1,0.1-0.1c0,0,0.1,0,0.2,0
		h1.1c0.2,0,0.3,0,0.3,0.1c0,0.1-0.1,0.1-0.3,0.1H7.5l1.7,1.8l1.7-1.8h-0.6c-0.2,0-0.3,0-0.3-0.1c0-0.1,0.1-0.1,0.3-0.1h1.1
		C11.7,40.1,11.7,40.2,11.7,40.2z"/>
</g>
<g>
	<path fill="#7097A7" d="M5.2,22.4c0,0.4-0.2,0.6-0.6,0.8c-0.4,0.2-0.8,0.3-1.4,0.3c-0.7,0-1.2-0.1-1.6-0.4v0.2
		c0,0.1-0.1,0.2-0.2,0.2s-0.2-0.1-0.2-0.2v-0.8c0-0.1,0.1-0.2,0.2-0.2c0.1,0,0.2,0.1,0.2,0.2c0,0.3,0.2,0.5,0.6,0.6
		c0.3,0.1,0.7,0.2,1,0.2c0.4,0,0.8-0.1,1.1-0.2c0.3-0.2,0.5-0.4,0.5-0.7c0-0.3-0.2-0.5-0.6-0.6c-0.2,0-0.5-0.1-0.9-0.2
		c-0.6-0.1-1-0.2-1.2-0.3c-0.4-0.2-0.6-0.4-0.6-0.7c0-0.3,0.2-0.6,0.6-0.8c0.3-0.2,0.7-0.3,1.2-0.3c0.5,0,1,0.1,1.4,0.4v-0.1
		c0-0.1,0.1-0.2,0.2-0.2c0.1,0,0.2,0.1,0.2,0.2v0.7c0,0.1-0.1,0.2-0.2,0.2c-0.1,0-0.2-0.1-0.2-0.2c0-0.2-0.2-0.4-0.5-0.5
		c-0.3-0.1-0.6-0.2-0.9-0.2c-0.4,0-0.7,0.1-1,0.2c-0.3,0.1-0.5,0.3-0.5,0.6c0,0.2,0.1,0.4,0.4,0.5c0.2,0.1,0.6,0.2,1.1,0.2
		c0.5,0.1,0.9,0.1,1.1,0.2C4.9,21.7,5.2,22,5.2,22.4z"/>
	<path fill="#7097A7" d="M11.1,23.1c0,0.1-0.3,0.2-0.8,0.3c-0.4,0.1-0.8,0.1-1.1,0.1c-0.4,0-0.8-0.1-1-0.2c-0.3-0.1-0.5-0.4-0.5-0.6
		v-1.8H7c-0.2,0-0.3,0-0.3-0.1c0-0.1,0.1-0.1,0.3-0.1h0.7v-0.8c0-0.1,0.1-0.2,0.2-0.2c0.1,0,0.2,0.1,0.2,0.2v0.8h2.1
		c0.2,0,0.3,0,0.3,0.1c0,0.1-0.1,0.1-0.3,0.1H8.1v1.8c0,0.2,0.1,0.3,0.4,0.4c0.2,0.1,0.4,0.1,0.7,0.1c0.2,0,0.5,0,0.8-0.1
		c0.3-0.1,0.6-0.1,0.8-0.2c0.1,0,0.1,0,0.2,0C11.1,23,11.1,23,11.1,23.1z"/>
	<path fill="#7097A7" d="M17,23.3c0,0.1-0.1,0.1-0.3,0.1h-0.9V23c-0.6,0.3-1.2,0.5-1.8,0.5c-0.4,0-0.8-0.1-1-0.2
		c-0.3-0.2-0.5-0.4-0.5-0.6c0-0.3,0.2-0.6,0.7-0.8c0.4-0.1,0.8-0.2,1.3-0.2c0.4,0,0.8,0,1.3,0.1v-0.4c0-0.2-0.1-0.3-0.4-0.4
		c-0.2-0.1-0.5-0.1-0.8-0.1c-0.3,0-0.7,0.1-1.3,0.2c-0.1,0-0.2,0-0.2,0c-0.1,0-0.2,0-0.2-0.1c0,0,0-0.1,0-0.1c0,0,0.2-0.1,0.5-0.1
		c0.5-0.1,0.9-0.1,1.1-0.1c0.4,0,0.8,0.1,1,0.2c0.3,0.2,0.5,0.4,0.5,0.6v1.8h0.5C16.9,23.2,17,23.2,17,23.3z M15.8,22.7v-0.6
		C15.4,22,15,22,14.6,22c-0.6,0-1,0.1-1.3,0.3c-0.2,0.1-0.4,0.3-0.4,0.5c0,0.2,0.1,0.3,0.3,0.5c0.2,0.1,0.4,0.1,0.7,0.1
		C14.6,23.3,15.2,23.1,15.8,22.7z"/>
	<path fill="#7097A7" d="M22.6,23.1c0,0.1-0.3,0.2-0.8,0.3c-0.4,0.1-0.8,0.1-1.1,0.1c-0.4,0-0.8-0.1-1-0.2c-0.3-0.1-0.5-0.4-0.5-0.6
		v-1.8h-0.7c-0.2,0-0.3,0-0.3-0.1c0-0.1,0.1-0.1,0.3-0.1h0.7v-0.8c0-0.1,0.1-0.2,0.2-0.2c0.1,0,0.2,0.1,0.2,0.2v0.8h2.1
		c0.2,0,0.3,0,0.3,0.1c0,0.1-0.1,0.1-0.3,0.1h-2.1v1.8c0,0.2,0.1,0.3,0.4,0.4c0.2,0.1,0.4,0.1,0.7,0.1c0.2,0,0.5,0,0.8-0.1
		c0.3-0.1,0.6-0.1,0.8-0.2c0.1,0,0.1,0,0.2,0C22.5,23,22.6,23,22.6,23.1z"/>
	<path fill="#7097A7" d="M28.1,23.3c0,0.1-0.1,0.1-0.3,0.1h-3.5c-0.2,0-0.3,0-0.3-0.1s0.1-0.1,0.3-0.1h1.5v-2.3h-1.1
		c-0.2,0-0.3,0-0.3-0.1c0-0.1,0.1-0.1,0.3-0.1h1.5v2.5h1.5C28.1,23.2,28.1,23.2,28.1,23.3z M26.3,19.9h-0.6v-0.7h0.6V19.9z"/>
	<path fill="#7097A7" d="M34,22c0,0.4-0.2,0.8-0.6,1.1s-0.9,0.4-1.5,0.4s-1.1-0.1-1.6-0.4c-0.4-0.3-0.6-0.6-0.6-1.1s0.2-0.8,0.6-1.1
		c0.4-0.3,0.9-0.4,1.6-0.4s1.1,0.1,1.5,0.4S34,21.6,34,22z M33.7,22c0-0.3-0.2-0.6-0.5-0.9s-0.8-0.4-1.3-0.4c-0.5,0-0.9,0.1-1.3,0.4
		c-0.3,0.2-0.5,0.5-0.5,0.9c0,0.3,0.2,0.6,0.5,0.9c0.4,0.2,0.8,0.4,1.3,0.4c0.5,0,0.9-0.1,1.3-0.4C33.5,22.7,33.7,22.4,33.7,22z"/>
	<path fill="#7097A7" d="M39.9,23.3c0,0.1-0.1,0.1-0.3,0.1h-1c-0.2,0-0.3,0-0.3-0.1s0.1-0.1,0.3-0.1h0.3v-1.7c0-0.2-0.1-0.4-0.3-0.5
		c-0.2-0.1-0.5-0.2-0.8-0.2c-0.3,0-0.6,0.1-0.8,0.2c-0.1,0.1-0.4,0.2-0.6,0.5v1.7h0.4c0.2,0,0.3,0,0.3,0.1s-0.1,0.1-0.3,0.1h-1.3
		c-0.2,0-0.3,0-0.3-0.1s0.1-0.1,0.3-0.1h0.4v-2.3h-0.3c-0.2,0-0.3,0-0.3-0.1c0-0.1,0.1-0.1,0.3-0.1h0.7V21c0.5-0.3,1-0.5,1.5-0.5
		c0.6,0,1,0.2,1.3,0.5c0.1,0.2,0.2,0.3,0.2,0.5v1.7h0.3C39.8,23.2,39.9,23.2,39.9,23.3z"/>
</g>
<image width="172" height="228" xlink:href="4AE09BA1.png"  transform="matrix(0.24 0 0 0.24 0.72 2.16)">
</image>
</svg>
