<?xml version="1.0" encoding="utf-8"?>
<!-- Generator: Adobe Illustrator 25.0.1, SVG Export Plug-In . SVG Version: 6.00 Build 0)  -->
<svg version="1.0" id="Layer_1" xmlns="http://www.w3.org/2000/svg" xmlns:xlink="http://www.w3.org/1999/xlink" x="0px" y="0px"
	 viewBox="0 0 1150 627.5" enable-background="new 0 0 1150 627.5" xml:space="preserve">
<path opacity="0.1" fill="#ECD59F" enable-background="new    " d="M1137.8,582.1c-4.5,11-10,21.6-16.4,31.6
	c-3,4.8-6.3,9.3-9.9,13.7l-0.1,0.1H0l0.1-0.1c1-0.8,6.9-5.5,16-13.7c6.5-5.8,14.8-13.4,24-22.5c75.5-74.2,220.5-250,99.7-411
	C27.6,30.5,148.5,3.3,228.2,0.2C258.9-1,289.4,4,318.1,14.9c36.8,14,104.2,35.5,191.9,45.3c2.9,0.3,5.8,0.6,8.7,0.9
	c46.4,4.7,93.2,5.6,139.8,2.5l0,0c1.4-0.1,2.8-0.2,4.1-0.3c46.1-3.2,91.8-10.3,136.7-21.1c2.9-0.7,5.8-1.4,8.6-2.1
	c149.6-34.6,287.6,83.4,253.1,216.7c-12.8,49.3-9.5,101.9,33,144.4C1163.7,470.7,1155.2,539.1,1137.8,582.1z"/>
<path fill="#ABD1DC" d="M1137.6,582.1c-4.5,11-10,21.6-16.4,31.6c-3,4.8-6.3,9.3-9.9,13.7H0c1-0.8,6.9-5.5,16-13.7
	c6.5-5.8,14.8-13.4,24-22.5L157.1,567c1.5-0.3,3.1-0.5,4.6-0.5l124.9-0.2h0.1l61.9-0.1h0.1l52.2-0.1H435l0,0h35l143.4-0.2h0.2h11.1
	h19.5h24.4h6.5l24.6-0.3h8.1l71.6-0.1h22.9l0,0h11l0,0l82.8-0.1h24.6l78.4-0.1l66.2-0.1c1.8,0,3.7,0.2,5.5,0.7L1137.6,582.1z"/>
<path fill="none" d="M16.2,613.7h1105.2c-3,4.8-6.3,9.3-9.9,13.7H0.1C1.1,626.6,7,621.8,16.2,613.7z"/>
<path fill="#7097A8" d="M16.2,613.7h1105.2c-3,4.8-6.3,9.3-9.9,13.7H0.1C1.1,626.6,7,621.8,16.2,613.7z"/>
<path fill="#3F3D56" d="M256.8,521.3h12.1c13.8,0,25,11.2,25,25v37.1l0,0h-62.1l0,0v-37.1C231.8,532.5,243,521.3,256.8,521.3
	L256.8,521.3z"/>
<path fill="#ABD1DC" d="M256.8,521.3h12.1c13.8,0,25,11.2,25,25v37.1l0,0h-62.1l0,0v-37.1C231.8,532.5,243,521.3,256.8,521.3
	L256.8,521.3z"/>
<circle fill="#3F3D56" cx="260.4" cy="530" r="5"/>
<circle fill="#3F3D56" cx="260.4" cy="523.8" r="5"/>
<circle fill="#ABD1DC" cx="260.4" cy="519.6" r="5"/>
<circle fill="#ABD1DC" cx="260.4" cy="511.4" r="5"/>
<circle fill="#ABD1DC" cx="260.4" cy="505.2" r="5"/>
<circle fill="#ABD1DC" cx="260.4" cy="499" r="5"/>
<circle fill="#3F3D56" cx="260.4" cy="492.7" r="5"/>
<circle fill="#ABD1DC" cx="267.8" cy="495.2" r="5"/>
<circle fill="#ABD1DC" cx="272.8" cy="492.7" r="5"/>
<circle fill="#ABD1DC" cx="277.8" cy="490.3" r="5"/>
<circle fill="#ABD1DC" cx="260.4" cy="486.5" r="5"/>
<circle fill="#ABD1DC" cx="260.4" cy="480.3" r="5"/>
<circle fill="#ABD1DC" cx="260.4" cy="474.1" r="5"/>
<circle fill="#3F3D56" cx="260.4" cy="467.9" r="5"/>
<path fill="#ECD59F" d="M281,451.9c-1.2,0.2-2.5,0.3-3.7,0.4c1.2-1,2.2-2.1,3.2-3.3c-0.7-2.1-1.7-4.1-3-5.8c-1.2,0.7-2.6,1.1-4,1.3
	c-1.2,0.2-2.5,0.3-3.7,0.4c1.6-1.3,3.1-3.3,4.8-5c-8.6-7.8-22-7.2-29.8,1.5c-7.8,8.6-7.2,22,1.5,29.8c8.6,7.8,22,7.2,29.8-1.5
	c3.5-3.9,5.5-8.9,5.5-14.2c0-1.2-0.1-2.4-0.3-3.6L281,451.9z"/>
<path fill="#ECD59F" d="M297.6,476.6c-1.3,0.8-2.7,1.3-4.2,1.4c-1.2,0.2-2.5,0.3-3.7,0.4c1.3-1.2,2.5-2.5,3.7-3.8
	c-6.6-1.7-13.4,2.3-15.2,8.9c-1.7,6.6,2.3,13.4,8.9,15.2c6.6,1.7,13.4-2.3,15.2-8.9C303.5,484.8,301.7,479.5,297.6,476.6
	L297.6,476.6z"/>
<circle fill="#ABD1DC" cx="252.9" cy="495.2" r="5"/>
<circle fill="#ABD1DC" cx="247.9" cy="492.7" r="5"/>
<circle fill="#ABD1DC" cx="243" cy="490.3" r="5"/>
<path fill="#ECD59F" d="M223.2,476.6c1.3,0.8,2.7,1.3,4.2,1.4c1.2,0.2,2.5,0.3,3.7,0.4c-1.3-1.2-2.6-2.5-3.7-3.8
	c6.6-1.7,13.4,2.3,15.2,8.9c1.7,6.6-2.3,13.4-8.9,15.2c-6.6,1.7-13.4-2.3-15.2-8.9C217.2,484.8,219,479.5,223.2,476.6L223.2,476.6z"
	/>
<path fill="#6E97A8" d="M256.8,525h12.1c13.8,0,25,11.2,25,25l0,0v32.9c0,2.3-1.9,4.2-4.2,4.2H236c-2.3,0-4.2-1.9-4.2-4.2V550
	C231.8,536.2,243,525,256.8,525L256.8,525z"/>
<g opacity="0.1">
	<path d="M281.3,453.2c-0.5,0.5-1,1-1.6,1.5c0.6,0,1.1-0.1,1.7-0.2C281.4,454.1,281.4,453.7,281.3,453.2z"/>
	<path d="M272.3,447.3c1.2-0.1,2.5-0.2,3.7-0.4c1.1-0.1,2.2-0.4,3.2-0.9c-0.5-1-1.1-2-1.7-2.9c-0.6,0.4-1.3,0.7-2,0.8
		C274.5,445.2,273.4,446.3,272.3,447.3z"/>
	<path d="M241.7,458c0-11.6,9.4-21.1,21-21.1c4.1,0,8,1.2,11.5,3.4l0.3-0.3c-8.7-7.7-22-7-29.8,1.7s-7,22,1.7,29.8
		c0.1,0.1,0.2,0.1,0.2,0.2C243.5,467.8,241.7,463,241.7,458z"/>
</g>
<g opacity="0.1">
	<path d="M289.7,480.8c1.2-0.1,2.5-0.2,3.7-0.4c1.5-0.1,2.9-0.6,4.2-1.4c2.8,2.1,4.7,5.3,5,8.8c0-0.4,0.1-0.9,0.1-1.3
		c0-3.9-1.8-7.7-5-10c-1.3,0.8-2.7,1.3-4.2,1.4l-1,0.1C291.6,479,290.7,480,289.7,480.8z"/>
	<path d="M290.2,476.6c0.4,0,0.8,0,1.2,0.1c0.6-0.7,1.3-1.4,1.9-2.2c-6.6-1.8-13.4,2.2-15.2,8.8c-0.3,1.1-0.4,2.1-0.4,3.2
		c0,0.4,0,0.8,0.1,1.2C278.5,481.4,283.8,476.6,290.2,476.6z"/>
</g>
<g opacity="0.1">
	<path d="M231,480.8c-1.2-0.1-2.5-0.2-3.7-0.4c-1.5-0.1-2.9-0.6-4.2-1.4c-2.8,2.1-4.7,5.3-5,8.8c0-0.4-0.1-0.9-0.1-1.3
		c0-3.9,1.8-7.7,5-10c1.3,0.8,2.7,1.3,4.2,1.4l1,0.1C229.1,479.1,230,480,231,480.8z"/>
	<path d="M230.6,476.6c-0.4,0-0.8,0-1.2,0.1c-0.6-0.7-1.3-1.4-1.9-2.2c6.6-1.8,13.4,2.2,15.2,8.8c0.3,1.1,0.4,2.1,0.4,3.2
		c0,0.4,0,0.8-0.1,1.2C242.3,481.4,236.9,476.6,230.6,476.6z"/>
</g>
<path fill="#ECD59F" d="M196.7,599.1H99c-2.3,0-4.2-1.9-4.2-4.2l0,0v-46.2c0-2.3,1.9-4.2,4.1-4.2c0.6,0,1.2,0.1,1.8,0.4
	c28.1,13.3,58.3,17.9,94,0.2c2.1-1,4.6-0.2,5.6,1.9c0.3,0.6,0.4,1.2,0.4,1.8v46C200.8,597.2,198.9,599.1,196.7,599.1L196.7,599.1z"
	/>
<path opacity="0.1" enable-background="new    " d="M196.7,599.1H99c-2.3,0-4.2-1.9-4.2-4.2l0,0v-46.2c0-2.3,1.9-4.2,4.1-4.2
	c0.6,0,1.2,0.1,1.8,0.4c28.1,13.3,58.3,17.9,94,0.2c2.1-1,4.6-0.2,5.6,1.9c0.3,0.6,0.4,1.2,0.4,1.8v46
	C200.8,597.2,198.9,599.1,196.7,599.1L196.7,599.1z"/>
<ellipse fill="#ABD1DC" cx="147.1" cy="555.4" rx="5.8" ry="7.6"/>
<ellipse fill="#ABD1DC" cx="147.1" cy="547.1" rx="5.8" ry="7.6"/>
<ellipse fill="#ABD1DC" cx="147.1" cy="537.9" rx="5.8" ry="7.6"/>
<ellipse fill="#ABD1DC" cx="147.1" cy="528.6" rx="5.8" ry="7.6"/>
<ellipse fill="#ABD1DC" cx="147.1" cy="519.4" rx="5.8" ry="7.6"/>
<ellipse fill="#3F3D56" cx="147.1" cy="510.1" rx="5.8" ry="7.6"/>
<ellipse fill="#3F3D56" cx="147.1" cy="500.8" rx="5.8" ry="7.6"/>
<path fill="#ECD59F" d="M168.8,437.5c0.8-1,1.5-2.1,2.1-3.2l-15.2-2.5l16.4,0.1c3.2-6.9,3.4-14.9,0.5-22l-22.1,11.4l20.3-15
	c-7.7-13.2-24.6-17.8-37.9-10.1s-17.8,24.6-10.1,37.9c0.7,1.1,1.4,2.2,2.2,3.3c-1.2,1.6-2.3,3.3-3.2,5l19.7,10.4l-21-7.1
	c-3,8.9-1.3,18.6,4.5,26c-9.5,12-7.4,29.4,4.6,38.9c12,9.5,29.4,7.4,38.9-4.6c7.9-10.1,7.9-24.2,0-34.3
	C176.7,461.7,176.7,447.5,168.8,437.5L168.8,437.5z"/>
<path opacity="0.1" enable-background="new    " d="M119.3,454.6c0,6.2,2.1,12.3,5.9,17.1c-9.5,12-7.4,29.4,4.6,38.9
	c12,9.5,29.4,7.4,38.9-4.6c7.9-10.1,7.9-24.2,0-34.3C172.5,467.1,119.3,451.5,119.3,454.6z"/>
<path fill="#ECD59F" d="M196.7,601.5H99c-2.3,0-4.2-1.9-4.2-4.2l0,0v-48.7c0-2.3,1.9-4.2,4.1-4.2c0.6,0,1.2,0.1,1.8,0.4
	c28.1,13.3,50.3,28.8,94,0.2c2.6-1.7,6,0.6,6,3.7v48.5C200.7,599.6,198.9,601.5,196.7,601.5z"/>
<polygon fill="#9C9CA1" points="921.8,587.8 777.7,606.9 770.5,607.8 700,570.2 700,561.4 920.2,537.4 "/>
<polygon fill="#939498" points="740.8,574.2 897,555.8 895.4,584.6 773.8,593.5 "/>
<path opacity="0.4" enable-background="new    " d="M777.7,597.4v9.5l-7.2,1L700,570.2v-8.8l67.3,36
	C767.3,597.4,776.1,598.2,777.7,597.4z"/>
<path fill="#C4A477" d="M805.4,447.3l-32.4,150c-1.1,5.2,2.2,10.3,7.3,11.4c1.1,0.2,2.2,0.3,3.3,0.1l204.7-27.1
	c3.6-0.5,6.7-3,7.8-6.5l44.2-133.2c1.7-5-1.1-10.5-6.1-12.1c-1.1-0.4-2.3-0.5-3.5-0.5l-216.5,10.3
	C809.9,439.9,806.3,443,805.4,447.3z"/>
<ellipse transform="matrix(0.1045 -0.9945 0.9945 0.1045 317.5346 1356.808)" fill="#FFFFFF" cx="912.2" cy="502.1" rx="8.7" ry="5.6"/>
<path fill="#C4A477" d="M472.6,603c-3.8,0-6.9-5.3-6.9-11.9c0-6.5,3.1-11.9,6.9-11.9h102.2c-1-3.3-3.1-5.4-5.3-5.4H366.3
	c-5.5,0-10,7.7-10,17.3c0,9.5,4.5,17.2,10,17.3h203.2c2.2,0,4.2-2.1,5.3-5.4L472.6,603z"/>
<path fill="#CCCCCC" d="M574.9,585.8h-97.2c-0.3,0-0.6-0.4-0.6-1c0-0.5,0.3-1,0.6-1h97.2c0.3,0,0.6,0.4,0.6,1
	C575.5,585.3,575.2,585.8,574.9,585.8z"/>
<path fill="#CCCCCC" d="M574.9,592.1h-97.2c-0.3,0-0.6-0.4-0.6-1c0-0.5,0.3-1,0.6-1h97.2c0.3,0,0.6,0.4,0.6,1
	C575.5,591.6,575.2,592.1,574.9,592.1z"/>
<path fill="#CCCCCC" d="M574.9,598.4h-97.2c-0.3,0-0.6-0.4-0.6-1c0-0.5,0.3-1,0.6-1h97.2c0.3,0,0.6,0.4,0.6,1
	C575.5,597.9,575.2,598.4,574.9,598.4z"/>
<path fill="#ECD59F" d="M446.1,569.5c-3.8,0-6.9-5.3-6.9-11.9c0-6.5,3.1-11.9,6.9-11.9h102.2c-1-3.3-3.1-5.4-5.3-5.4H339.9
	c-5.5,0-10,7.7-10,17.3c0,9.5,4.5,17.2,10,17.3h203.2c2.2,0,4.2-2.1,5.3-5.4L446.1,569.5z"/>
<path fill="#CCCCCC" d="M548.5,552.3h-97.2c-0.3,0-0.6-0.4-0.6-1c0-0.5,0.3-1,0.6-1h97.2c0.3,0,0.6,0.4,0.6,1
	C549.1,551.9,548.8,552.3,548.5,552.3L548.5,552.3z"/>
<path fill="#CCCCCC" d="M548.5,558.6h-97.2c-0.3,0-0.6-0.4-0.6-1c0-0.5,0.3-1,0.6-1h97.2c0.3,0,0.6,0.4,0.6,1
	C549.1,558.2,548.8,558.6,548.5,558.6L548.5,558.6z"/>
<path fill="#CCCCCC" d="M548.5,564.9h-97.2c-0.3,0-0.6-0.4-0.6-1c0-0.5,0.3-1,0.6-1h97.2c0.3,0,0.6,0.4,0.6,1
	S548.8,564.9,548.5,564.9L548.5,564.9z"/>
<circle fill="#ABD1DC" cx="260.4" cy="492.7" r="5"/>
</svg>
